<svg width="12" height="12" viewBox="0 0 12 12" fill="none" xmlns="http://www.w3.org/2000/svg">
<path opacity="0.8" d="M0.661086 12C0.476375 11.9997 0.300291 11.9218 0.175796 11.7853C0.0490053 11.6499 -0.0139976 11.4668 0.00261926 11.2821L0.163944 9.5077L7.61648 2.05581L9.94547 4.38477L2.49492 11.836L0.721007 11.9974C0.700595 11.9993 0.680182 12 0.661086 12ZM10.4104 3.91911L8.08201 1.59015L9.47862 0.193171C9.60213 0.0694931 9.76972 0 9.94449 0C10.1193 0 10.2868 0.0694931 10.4104 0.193171L11.807 1.59015C11.9306 1.71369 12.0001 1.88133 12.0001 2.05614C12.0001 2.23095 11.9306 2.39859 11.807 2.52213L10.411 3.91845L10.4104 3.91911Z" fill="#06112D" fill-opacity="0.5"/>
</svg>
